<svg xmlns="http://www.w3.org/2000/svg" xmlns:xlink="http://www.w3.org/1999/xlink" version="1.1" x="0px" y="0px" viewBox="0 0 100 125" style="enable-background:new 0 0 100 100;" xml:space="preserve"><path d="M47.838,80.772c0.353,1.912-1.525,7.615-2.532,10.47c-0.279,0.79-1.274,1.016-1.865,0.423  c-2.082-2.091-6.038-6.229-6.325-7.759c-1.159-6.185-2.324-13.083-3.187-19.718l10.991-1.571  C45.692,68.514,46.739,74.823,47.838,80.772z"/><path d="M44.381,58.149l-10.989,1.57c-0.8-7.309-1.123-13.998-0.5-18.63c0.557-4.139,1.797-7.819,3.428-11.329l10.272,4.976  c-1.305,2.757-2.38,5.56-2.686,7.836C43.416,46.22,43.687,51.795,44.381,58.149z"/><path d="M82.183,39.657C70.946,29.294,69.965,14.068,52.16,9.235c-7.955-2.159-23.381-1.621-34.017,2.671  c-0.433,0.175-0.655,0.655-0.529,1.105l0.947,3.405c0.915,3.29,4.344,5.136,7.617,4.163c3.403-1.011,7.306-1.515,10.886-1.308  c2.294,0.133,3.55,2.717,2.349,4.676c-0.367,0.599-0.682,1.211-1.027,1.814l10.261,4.97c0.352-0.64,0.703-1.264,1.045-1.853  c1.895-3.267,6.296-4.024,9.163-1.565c5.488,4.707,12.575,11.693,22.629,13.631C82.233,41.089,82.745,40.175,82.183,39.657z   M48.5,20c-1.657,0-3-1.343-3-3c0-1.657,1.343-3,3-3c1.657,0,3,1.343,3,3C51.5,18.657,50.157,20,48.5,20z"/></svg>