<svg xmlns="http://www.w3.org/2000/svg" xmlns:xlink="http://www.w3.org/1999/xlink" version="1.1" x="0px" y="0px" viewBox="0 0 74 92.5" style="enable-background:new 0 0 74 74;" xml:space="preserve"><path d="M56.06,12.9h-0.01C50.79,7.64,43.89,5,37,5c-6.89,0-13.79,2.64-19.05,7.89c-10.53,10.53-10.53,27.59,0,38.12L35.2,68.25  c0.99,1,2.61,1,3.6,0l17.25-17.24C66.58,40.49,66.58,23.43,56.06,12.9z M30.39,35.62c0.62,0.72,1.24,1.43,1.86,2.14  c0.63,0.73,1.78,0.7,2.37-0.06c0.61-0.78,1.22-1.56,1.83-2.33c0.37,1.56,0.99,3.06,1.83,4.43c0.56,0.91,1.89,0.92,2.53,0.05  c0.99-1.35,2.01-2.67,3.06-3.98l7.37,7.37c-0.82,0.96-1.74,1.83-2.74,2.61c-3.38,2.23-7.35,3.43-11.51,3.43  c-3.75,0-7.33-1-10.48-2.83c-1.35-0.94-2.58-2.05-3.63-3.31L30.39,35.62z M51.86,42.45L39.52,30.11c-0.52-0.52-1.16-0.84-1.83-0.97  v-5.06l4.59-1.88l-5.97-2.45v2.2v2.69v4.49c-0.67,0.13-1.31,0.46-1.83,0.97L22.25,42.34c-2.34-3.11-3.74-6.96-3.74-11.15  c0-10.26,8.32-18.59,18.59-18.59c10.26,0,18.58,8.33,18.58,18.59C55.68,35.43,54.24,39.33,51.86,42.45z"/></svg>