<svg xmlns="http://www.w3.org/2000/svg" data-name="Layer 29 copy 3" viewBox="0 0 100 125" x="0px" y="0px"><path d="M43,64.16l-9-6.9-9.7.55a8.75,8.75,0,0,1-.89,0L38,68.7a.72.72,0,0,1,.3.55l1.14,15H43Z"/><path d="M28.47,29l3,.86,6.9-2.48,10-11-.8-.84-.68-.71L35,23.77a.73.73,0,0,1-.31.14l-7.46,1.36A4.42,4.42,0,0,1,28,26.93Z"/><path d="M18.32,20.93A7.51,7.51,0,1,0,13,18.75,7.45,7.45,0,0,0,18.32,20.93Z"/><path d="M43.24,55.23h0a.71.71,0,0,1,.57.27L54.51,68.36l2.94-1.51-13-19.58-12.81.22a.82.82,0,0,1-.75-.59l-1.87-8.38L24.14,38a.75.75,0,0,1,.16-1.49L37.91,38l12-5.42-1.26-3L37.32,33a.75.75,0,0,1-.42,0L24.15,29.36a.75.75,0,0,1,.41-1.45l2.27.65-.29-1.3a3,3,0,0,0-3.25-2.36l-5.49.54a3,3,0,0,0-2.72,2.64c-.63,5.25-1.22,15.3,2,23.7a7.21,7.21,0,0,0,7.13,4.53Z"/><polygon points="72.08 33.79 75.72 44.48 88 51.17 88 24.11 78.66 24.11 72.08 33.79"/><path d="M47.45,13.26l18.24,5.51a.75.75,0,0,1,.5.94.74.74,0,0,1-.71.53.78.78,0,0,1-.22,0L49.49,15.44l.44.46a.74.74,0,0,1,.21.54l-.29,12,1.75,4.13,3.3,6.5L57.79,38a.75.75,0,0,1,.53,1.41l-3,1.13,1.17,9.12,7.55,8.23H75.32a.74.74,0,0,1,.49.18l3.24,2.74a.75.75,0,0,1,.09,1.06.76.76,0,0,1-.57.26.74.74,0,0,1-.49-.18l-3-2.56H64.17l-5,8.12a.78.78,0,0,1-.29.28l-3.94,2-3,9.42h3.52a.75.75,0,1,1,0,1.5H51.15l-6.84,4.78-5.4,8.72H85.68L69.19,85.67a.84.84,0,0,1-.29-.27L66,80.75H60a.75.75,0,0,1,0-1.5h6.22l9.69-4.92a.81.81,0,0,1,.34-.08H88v-3.9l-2.35-2a.75.75,0,0,1,1-1.15L88,68.38V52.87L74.75,45.66a.73.73,0,0,1-.35-.42L70.79,34.65l-1.87.72a.85.85,0,0,1-.26.05.74.74,0,0,1-.7-.49.73.73,0,0,1,.43-1l2.37-.91,6.31-9.28-5-1.52a.75.75,0,1,1,.44-1.44l5.89,1.79H88V5.75H45.44l-.87,2.66ZM81.24,63.65a.74.74,0,0,1,1.05-.09l1.8,1.52a.75.75,0,0,1,.09,1.06.76.76,0,0,1-.57.26.81.81,0,0,1-.49-.17l-1.79-1.52A.75.75,0,0,1,81.24,63.65ZM65.74,36.58l-2.31.89a.84.84,0,0,1-.27,0,.75.75,0,0,1-.27-1.45l2.32-.88a.75.75,0,1,1,.53,1.4Z"/><polygon points="67.47 80.3 70.06 84.43 88 93.76 88 75.75 76.43 75.75 67.47 80.3"/></svg>