<svg xmlns:inkscape="http://www.inkscape.org/namespaces/inkscape" xmlns:sodipodi="http://sodipodi.sourceforge.net/DTD/sodipodi-0.dtd" xmlns="http://www.w3.org/2000/svg" xmlns:svg="http://www.w3.org/2000/svg" viewBox="0 0 16.933333 21.166666250000002" version="1.1" x="0px" y="0px"><g transform="translate(851.24347,348.81778)"><path style="color:#000000;" d="m -844.67144,-344.34087 a 0.24138264,0.29007094 0 0 0 -0.19533,0.10077 l -2.07326,2.90887 -0.82889,0.49506 -1.26866,2.44739 -0.89813,1.26039 a 0.39687499,0.39687499 0 0 0 -0.2651,0.37104 0.39687499,0.39687499 0 0 0 0.39635,0.39636 h 14.05496 a 0.39687499,0.39687499 0 0 0 0.11524,-0.0186 h 0.0372 a 0.24138264,0.29007094 0 0 0 0.23926,-0.34106 0.39687499,0.39687499 0 0 0 0.005,-0.0367 0.39687499,0.39687499 0 0 0 -0.33073,-0.38757 l -4.61264,-4.78111 a 0.24138264,0.29007094 0 0 0 -0.36328,0.0682 l -1.11725,2.22726 -2.70888,-4.58835 a 0.24138264,0.29007094 0 0 0 -0.18552,-0.12196 z m 0.0393,0.87643 2.6758,4.53099 a 0.24138264,0.29007094 0 0 0 0.40411,-0.0186 l 1.15807,-2.30942 0.091,0.094 0.50075,1.80506 0.63872,0.19172 -0.25115,0.63045 1.34566,0.65784 c 0,0 -0.41058,0.35605 -0.31936,0.35605 0.0416,0 0.62904,0.1789 1.25263,0.37259 h -6.03167 l -1.10381,-1.13378 0.46612,-1.14102 0.40463,-0.35088 -0.80615,-1.04645 0.25786,-0.42684 -0.54829,-0.65888 z" fill="#000000" stroke-width="1" stroke-linecap="round" stroke-linejoin="round"/></g></svg>